<svg width="22" height="18" viewBox="0 0 22 18" fill="none" xmlns="http://www.w3.org/2000/svg">
<path d="M2.7499 6.776C2.8619 6.759 2.9769 6.75 3.0939 6.75H18.9059C19.0229 6.75 19.1379 6.759 19.2499 6.776M2.7499 6.776C2.16467 6.86663 1.63876 7.18434 1.28626 7.66022C0.93375 8.13609 0.783072 8.73175 0.866905 9.318L1.7239 15.318C1.80045 15.8541 2.0678 16.3447 2.47688 16.6996C2.88597 17.0545 3.40933 17.2499 3.9509 17.25H18.0499C18.5915 17.2499 19.1148 17.0545 19.5239 16.6996C19.933 16.3447 20.2004 15.8541 20.2769 15.318L21.1339 9.318C21.2177 8.73175 21.0671 8.13609 20.7146 7.66022C20.362 7.18434 19.8351 6.86663 19.2499 6.776M2.7499 6.776L2.7509 3C2.7509 2.40344 2.98782 1.83129 3.40956 1.40936C3.8313 0.987435 4.40334 0.750265 4.9999 0.75H8.8789C9.2766 0.75035 9.65787 0.908615 9.9389 1.19L12.0609 3.31C12.3419 3.59138 12.7232 3.74965 13.1209 3.75H16.9999C17.5966 3.75 18.1689 3.98705 18.5909 4.40901C19.0129 4.83097 19.2499 5.40326 19.2499 6V6.776" stroke="#2F3A4C" stroke-width="1.5" stroke-linecap="round" stroke-linejoin="round"/>
</svg>
