<svg width="17" height="18" viewBox="0 0 17 18" fill="none" xmlns="http://www.w3.org/2000/svg">
<path d="M16 9C16 10.9891 15.2098 12.8968 13.8033 14.3033C12.3968 15.7098 10.4891 16.5 8.5 16.5M16 9C16 7.01088 15.2098 5.10322 13.8033 3.6967C12.3968 2.29018 10.4891 1.5 8.5 1.5M16 9H1M8.5 16.5C6.51088 16.5 4.60322 15.7098 3.1967 14.3033C1.79018 12.8968 1 10.9891 1 9M8.5 16.5C9.88083 16.5 11 13.1417 11 9C11 4.85833 9.88083 1.5 8.5 1.5M8.5 16.5C7.11917 16.5 6 13.1417 6 9C6 4.85833 7.11917 1.5 8.5 1.5M8.5 1.5C6.51088 1.5 4.60322 2.29018 3.1967 3.6967C1.79018 5.10322 1 7.01088 1 9" stroke="#2F3A4C" stroke-width="1.5" stroke-linecap="round" stroke-linejoin="round"/>
</svg>
