<svg width="21" height="21" viewBox="0 0 21 21" fill="none" xmlns="http://www.w3.org/2000/svg">
<g clip-path="url(#clip0_141_7571)">
<path d="M10.4999 8.68176V12.5545H15.8817C15.6454 13.7999 14.9362 14.8545 13.8726 15.5636L17.118 18.0818C19.0089 16.3364 20.0998 13.7728 20.0998 10.7273C20.0998 10.0182 20.0362 9.33636 19.918 8.68187L10.4999 8.68176Z" fill="#4285F4"/>
<path d="M4.89555 12.4033L4.16358 12.9636L1.57263 14.9818C3.21808 18.2454 6.59056 20.5 10.4996 20.5C13.1996 20.5 15.4632 19.6091 17.1177 18.0818L13.8723 15.5636C12.9814 16.1636 11.845 16.5273 10.4996 16.5273C7.89963 16.5273 5.69061 14.7728 4.89964 12.4091L4.89555 12.4033Z" fill="#34A853"/>
<path d="M1.57265 6.01819C0.890868 7.36359 0.5 8.88179 0.5 10.4999C0.5 12.1181 0.890868 13.6363 1.57265 14.9817C1.57265 14.9907 4.89998 12.3999 4.89998 12.3999C4.69998 11.7999 4.58177 11.1636 4.58177 10.4998C4.58177 9.83612 4.69998 9.19979 4.89998 8.5998L1.57265 6.01819Z" fill="#FBBC05"/>
<path d="M10.4998 4.48182C11.9726 4.48182 13.2816 4.99089 14.3271 5.97272L17.1907 3.10912C15.4543 1.49097 13.1999 0.5 10.4998 0.5C6.59076 0.5 3.21808 2.74545 1.57263 6.01819L4.89986 8.60001C5.69072 6.23635 7.89984 4.48182 10.4998 4.48182Z" fill="#EA4335"/>
</g>
<defs>
<clipPath id="clip0_141_7571">
<rect width="20" height="20" fill="white" transform="translate(0.5 0.5)"/>
</clipPath>
</defs>
</svg>
