<svg width="194" height="33" viewBox="0 0 194 33" fill="none" xmlns="http://www.w3.org/2000/svg">
<g clip-path="url(#clip0_101_6303)">
<path d="M22.5056 13.5705L24.8945 11.1815C25.8129 10.2631 25.8129 8.77402 24.8945 7.85558C23.9761 6.93714 22.4869 6.93714 21.5685 7.85558L19.1796 10.2445M22.5056 13.5705L8.26478 27.8113C7.34634 28.7297 5.85727 28.7297 4.93883 27.8113C4.02039 26.8929 4.02039 25.4037 4.93883 24.4853L19.1796 10.2445M22.5056 13.5705L19.1796 10.2445L22.5056 13.5705Z" fill="url(#paint0_linear_101_6303)"/>
<path d="M19.2559 10.2234L22.5247 13.5274" stroke="white" stroke-width="1.33333"/>
<path d="M24.215 19.1954C24.2227 19.1572 24.2774 19.1572 24.2851 19.1954C24.6903 21.1776 26.2392 22.7265 28.2214 23.1317C28.2596 23.1394 28.2596 23.1941 28.2214 23.2018C26.2392 23.607 24.6903 25.156 24.2851 27.1381C24.2774 27.1764 24.2227 27.1764 24.215 27.1381C23.8098 25.156 22.2608 23.607 20.2787 23.2018C20.2404 23.1941 20.2404 23.1394 20.2787 23.1317C22.2608 22.7265 23.8098 21.1776 24.215 19.1954Z" fill="url(#paint1_linear_101_6303)"/>
<path d="M11.0775 4.91289C11.19 4.36237 11.9766 4.36237 12.0892 4.91289C12.3377 6.12878 13.2879 7.07898 14.5037 7.3275C15.0543 7.44004 15.0543 8.22662 14.5037 8.33916C13.2879 8.58768 12.3377 9.53788 12.0892 10.7538C11.9766 11.3043 11.19 11.3043 11.0775 10.7538C10.829 9.53788 9.87878 8.58768 8.66289 8.33916C8.11237 8.22662 8.11237 7.44004 8.66289 7.3275C9.87878 7.07898 10.829 6.12878 11.0775 4.91289Z" fill="url(#paint2_linear_101_6303)"/>
<path d="M43.6877 26.3812C41.8627 26.3812 40.3377 25.9812 39.1127 25.1812C37.896 24.3812 36.9794 23.2853 36.3627 21.8937C35.7544 20.502 35.4502 18.9228 35.4502 17.1562V16.8937C35.4502 15.1103 35.771 13.527 36.4127 12.1437C37.0544 10.752 37.9752 9.65615 39.1752 8.85615C40.3752 8.05615 41.8085 7.65615 43.4752 7.65615C44.6502 7.65615 45.7252 7.83949 46.7002 8.20615C47.6752 8.57282 48.4835 9.03949 49.1252 9.60615V13.5312H47.1627L46.9002 10.6562C46.6335 10.4478 46.3252 10.2728 45.9752 10.1312C45.6335 9.98949 45.2502 9.88115 44.8252 9.80615C44.4085 9.73115 43.9544 9.69365 43.4627 9.69365C42.271 9.69365 41.2627 10.002 40.4377 10.6187C39.6127 11.227 38.9877 12.0687 38.5627 13.1437C38.1377 14.2187 37.9252 15.4603 37.9252 16.8687V17.1562C37.9252 18.6812 38.1502 19.9853 38.6002 21.0687C39.0585 22.1437 39.721 22.9645 40.5877 23.5312C41.4627 24.0978 42.5252 24.3812 43.7752 24.3812C44.3585 24.3812 44.9294 24.3103 45.4877 24.1687C46.046 24.027 46.5085 23.8437 46.8752 23.6187L47.1502 21.0812H49.0752V25.0312C48.3919 25.4562 47.5752 25.7895 46.6252 26.0312C45.6752 26.2645 44.696 26.3812 43.6877 26.3812Z" fill="#252D3C"/>
<path d="M51.3752 26.1187V24.5437L53.4127 24.1937V8.55615L51.3752 8.20615V6.61865H55.8752V24.1937L57.9127 24.5437V26.1187H51.3752Z" fill="#252D3C"/>
<path d="M64.0502 26.3812C62.6419 26.3812 61.571 26.0395 60.8377 25.3562C60.1044 24.6645 59.7377 23.6937 59.7377 22.4437C59.7377 21.1603 60.2627 20.1312 61.3127 19.3562C62.3627 18.5728 63.821 18.1812 65.6877 18.1812H68.1002V16.8562C68.1002 16.0395 67.8502 15.4062 67.3502 14.9562C66.8585 14.5062 66.1627 14.2812 65.2627 14.2812C64.696 14.2812 64.2044 14.352 63.7877 14.4937C63.371 14.627 62.9919 14.8145 62.6502 15.0562L62.3877 16.9437H60.4877V13.8437C61.096 13.352 61.8044 12.9812 62.6127 12.7312C63.421 12.4728 64.3169 12.3437 65.3002 12.3437C66.9419 12.3437 68.2294 12.7353 69.1627 13.5187C70.096 14.302 70.5627 15.4228 70.5627 16.8812V23.3937C70.5627 23.5687 70.5627 23.7395 70.5627 23.9062C70.571 24.0728 70.5835 24.2395 70.6002 24.4062L71.9127 24.5437V26.1187H68.3752C68.3002 25.752 68.2419 25.4228 68.2002 25.1312C68.1585 24.8395 68.1294 24.5478 68.1127 24.2562C67.6377 24.8645 67.0419 25.3728 66.3252 25.7812C65.6169 26.1812 64.8585 26.3812 64.0502 26.3812ZM64.4127 24.3187C65.2294 24.3187 65.9752 24.1228 66.6502 23.7312C67.3252 23.3395 67.8085 22.8687 68.1002 22.3187V19.8687H65.6002C64.4669 19.8687 63.6169 20.1395 63.0502 20.6812C62.4835 21.2228 62.2002 21.827 62.2002 22.4937C62.2002 23.0853 62.3835 23.5395 62.7502 23.8562C63.1169 24.1645 63.671 24.3187 64.4127 24.3187Z" fill="#252D3C"/>
<path d="M79.3002 26.3812C78.3919 26.3812 77.5419 26.2895 76.7502 26.1062C75.9585 25.9228 75.1169 25.6395 74.2252 25.2562L74.2002 22.0437H76.0627L76.5252 23.9812C76.9919 24.1728 77.4419 24.3145 77.8752 24.4062C78.3169 24.4895 78.7919 24.5312 79.3002 24.5312C80.3002 24.5312 81.0169 24.3395 81.4502 23.9562C81.8835 23.5728 82.1002 23.0978 82.1002 22.5312C82.1002 21.9978 81.8794 21.5478 81.4377 21.1812C81.0044 20.8062 80.2127 20.4895 79.0627 20.2312C77.4294 19.8562 76.2252 19.3562 75.4502 18.7312C74.6835 18.0978 74.3002 17.2562 74.3002 16.2062C74.3002 15.4728 74.5127 14.8187 74.9377 14.2437C75.3627 13.6603 75.9544 13.1978 76.7127 12.8562C77.471 12.5145 78.3544 12.3437 79.3627 12.3437C80.3877 12.3437 81.2627 12.4603 81.9877 12.6937C82.721 12.927 83.3585 13.2395 83.9002 13.6312L84.0252 16.7187H82.1752L81.7752 14.9187C81.4835 14.702 81.1377 14.5353 80.7377 14.4187C80.3377 14.302 79.8794 14.2437 79.3627 14.2437C78.596 14.2437 77.971 14.4228 77.4877 14.7812C77.0127 15.1395 76.7752 15.5895 76.7752 16.1312C76.7752 16.4478 76.8419 16.7228 76.9752 16.9562C77.1169 17.1895 77.3835 17.402 77.7752 17.5937C78.1669 17.777 78.7419 17.9603 79.5002 18.1437C81.3835 18.5853 82.696 19.1478 83.4377 19.8312C84.1877 20.5145 84.5627 21.3562 84.5627 22.3562C84.5627 23.4978 84.1377 24.4562 83.2877 25.2312C82.446 25.9978 81.1169 26.3812 79.3002 26.3812Z" fill="#252D3C"/>
<path d="M92.0752 26.3812C91.1669 26.3812 90.3169 26.2895 89.5252 26.1062C88.7335 25.9228 87.8919 25.6395 87.0002 25.2562L86.9752 22.0437H88.8377L89.3002 23.9812C89.7669 24.1728 90.2169 24.3145 90.6502 24.4062C91.0919 24.4895 91.5669 24.5312 92.0752 24.5312C93.0752 24.5312 93.7919 24.3395 94.2252 23.9562C94.6585 23.5728 94.8752 23.0978 94.8752 22.5312C94.8752 21.9978 94.6544 21.5478 94.2127 21.1812C93.7794 20.8062 92.9877 20.4895 91.8377 20.2312C90.2044 19.8562 89.0002 19.3562 88.2252 18.7312C87.4585 18.0978 87.0752 17.2562 87.0752 16.2062C87.0752 15.4728 87.2877 14.8187 87.7127 14.2437C88.1377 13.6603 88.7294 13.1978 89.4877 12.8562C90.246 12.5145 91.1294 12.3437 92.1377 12.3437C93.1627 12.3437 94.0377 12.4603 94.7627 12.6937C95.496 12.927 96.1335 13.2395 96.6752 13.6312L96.8002 16.7187H94.9502L94.5502 14.9187C94.2585 14.702 93.9127 14.5353 93.5127 14.4187C93.1127 14.302 92.6544 14.2437 92.1377 14.2437C91.371 14.2437 90.746 14.4228 90.2627 14.7812C89.7877 15.1395 89.5502 15.5895 89.5502 16.1312C89.5502 16.4478 89.6169 16.7228 89.7502 16.9562C89.8919 17.1895 90.1585 17.402 90.5502 17.5937C90.9419 17.777 91.5169 17.9603 92.2752 18.1437C94.1585 18.5853 95.471 19.1478 96.2127 19.8312C96.9627 20.5145 97.3377 21.3562 97.3377 22.3562C97.3377 23.4978 96.9127 24.4562 96.0627 25.2312C95.221 25.9978 93.8919 26.3812 92.0752 26.3812Z" fill="#252D3C"/>
<path d="M99.4627 26.1187V24.5437L101.5 24.1937V9.85615L99.4627 9.50615V7.91865H107.825C109.125 7.91865 110.234 8.14782 111.15 8.60615C112.067 9.05615 112.767 9.68949 113.25 10.5062C113.734 11.3228 113.975 12.277 113.975 13.3687C113.975 14.4687 113.734 15.427 113.25 16.2437C112.767 17.0603 112.067 17.6937 111.15 18.1437C110.234 18.5937 109.125 18.8187 107.825 18.8187H103.963V24.1937L106 24.5437V26.1187H99.4627ZM103.963 16.8937H107.825C109.059 16.8937 109.979 16.5645 110.588 15.9062C111.204 15.2395 111.513 14.402 111.513 13.3937C111.513 12.3853 111.204 11.5437 110.588 10.8687C109.979 10.1937 109.059 9.85615 107.825 9.85615H103.963V16.8937Z" fill="#252D3C"/>
<path d="M115.475 26.1187V24.5437L117.513 24.1937V8.55615L115.475 8.20615V6.61865H119.975V24.1937L122.013 24.5437V26.1187H115.475Z" fill="#252D3C"/>
<path d="M128.15 26.3812C126.742 26.3812 125.671 26.0395 124.938 25.3562C124.204 24.6645 123.838 23.6937 123.838 22.4437C123.838 21.1603 124.363 20.1312 125.413 19.3562C126.463 18.5728 127.921 18.1812 129.788 18.1812H132.2V16.8562C132.2 16.0395 131.95 15.4062 131.45 14.9562C130.959 14.5062 130.263 14.2812 129.363 14.2812C128.796 14.2812 128.304 14.352 127.888 14.4937C127.471 14.627 127.092 14.8145 126.75 15.0562L126.488 16.9437H124.588V13.8437C125.196 13.352 125.904 12.9812 126.713 12.7312C127.521 12.4728 128.417 12.3437 129.4 12.3437C131.042 12.3437 132.329 12.7353 133.263 13.5187C134.196 14.302 134.663 15.4228 134.663 16.8812V23.3937C134.663 23.5687 134.663 23.7395 134.663 23.9062C134.671 24.0728 134.684 24.2395 134.7 24.4062L136.013 24.5437V26.1187H132.475C132.4 25.752 132.342 25.4228 132.3 25.1312C132.259 24.8395 132.229 24.5478 132.213 24.2562C131.738 24.8645 131.142 25.3728 130.425 25.7812C129.717 26.1812 128.959 26.3812 128.15 26.3812ZM128.513 24.3187C129.329 24.3187 130.075 24.1228 130.75 23.7312C131.425 23.3395 131.909 22.8687 132.2 22.3187V19.8687H129.7C128.567 19.8687 127.717 20.1395 127.15 20.6812C126.584 21.2228 126.3 21.827 126.3 22.4937C126.3 23.0853 126.484 23.5395 126.85 23.8562C127.217 24.1645 127.771 24.3187 128.513 24.3187Z" fill="#252D3C"/>
<path d="M137.925 26.1187V24.5437L139.963 24.1937V14.5312L137.925 14.1812V12.5937H142.163L142.338 14.6062C142.788 13.8895 143.35 13.3353 144.025 12.9437C144.709 12.5437 145.484 12.3437 146.35 12.3437C147.809 12.3437 148.938 12.7728 149.738 13.6312C150.538 14.4812 150.938 15.7978 150.938 17.5812V24.1937L152.975 24.5437V26.1187H146.438V24.5437L148.475 24.1937V17.6312C148.475 16.4395 148.238 15.5937 147.763 15.0937C147.296 14.5937 146.579 14.3437 145.613 14.3437C144.904 14.3437 144.275 14.5145 143.725 14.8562C143.184 15.1978 142.75 15.6645 142.425 16.2562V24.1937L144.463 24.5437V26.1187H137.925Z" fill="#252D3C"/>
<path d="M154.725 26.1187V24.5437L156.763 24.1937V14.5312L154.725 14.1812V12.5937H158.963L159.138 14.6062C159.588 13.8895 160.15 13.3353 160.825 12.9437C161.509 12.5437 162.284 12.3437 163.15 12.3437C164.609 12.3437 165.738 12.7728 166.538 13.6312C167.338 14.4812 167.738 15.7978 167.738 17.5812V24.1937L169.775 24.5437V26.1187H163.238V24.5437L165.275 24.1937V17.6312C165.275 16.4395 165.038 15.5937 164.563 15.0937C164.096 14.5937 163.379 14.3437 162.413 14.3437C161.704 14.3437 161.075 14.5145 160.525 14.8562C159.984 15.1978 159.55 15.6645 159.225 16.2562V24.1937L161.263 24.5437V26.1187H154.725Z" fill="#252D3C"/>
<path d="M177.488 26.3812C176.238 26.3812 175.15 26.0978 174.225 25.5312C173.3 24.9562 172.584 24.1603 172.075 23.1437C171.575 22.127 171.325 20.952 171.325 19.6187V19.0687C171.325 17.7853 171.588 16.6395 172.113 15.6312C172.646 14.6145 173.35 13.8145 174.225 13.2312C175.109 12.6395 176.071 12.3437 177.113 12.3437C178.329 12.3437 179.346 12.5937 180.163 13.0937C180.988 13.5937 181.609 14.2978 182.025 15.2062C182.442 16.1062 182.65 17.1687 182.65 18.3937V19.9312H173.875L173.838 19.9937C173.854 20.8603 174.004 21.6312 174.288 22.3062C174.579 22.9728 174.996 23.4978 175.538 23.8812C176.079 24.2645 176.729 24.4562 177.488 24.4562C178.321 24.4562 179.05 24.3395 179.675 24.1062C180.309 23.8645 180.854 23.5353 181.313 23.1187L182.275 24.7187C181.792 25.1853 181.15 25.5812 180.35 25.9062C179.559 26.2228 178.604 26.3812 177.488 26.3812ZM173.95 18.0062H180.188V17.6812C180.188 17.0312 180.071 16.452 179.838 15.9437C179.613 15.427 179.271 15.0228 178.813 14.7312C178.363 14.4312 177.796 14.2812 177.113 14.2812C176.563 14.2812 176.063 14.4437 175.613 14.7687C175.163 15.0853 174.792 15.5187 174.5 16.0687C174.209 16.6187 174.017 17.2437 173.925 17.9437L173.95 18.0062Z" fill="#252D3C"/>
<path d="M184.55 26.1187V24.5437L186.588 24.1937V14.5312L184.55 14.1812V12.5937H188.788L189 14.3187L189.025 14.5562C189.409 13.8645 189.879 13.3228 190.438 12.9312C191.004 12.5395 191.65 12.3437 192.375 12.3437C192.634 12.3437 192.896 12.3687 193.163 12.4187C193.438 12.4603 193.634 12.502 193.75 12.5437L193.425 14.8312L191.713 14.7312C191.063 14.6895 190.517 14.8395 190.075 15.1812C189.634 15.5145 189.292 15.9645 189.05 16.5312V24.1937L191.088 24.5437V26.1187H184.55Z" fill="#252D3C"/>
</g>
<defs>
<linearGradient id="paint0_linear_101_6303" x1="14.9167" y1="7.16675" x2="14.9167" y2="28.5001" gradientUnits="userSpaceOnUse">
<stop stop-color="#30559F"/>
<stop offset="1" stop-color="#4378E0"/>
</linearGradient>
<linearGradient id="paint1_linear_101_6303" x1="24.25" y1="19.1667" x2="24.25" y2="27.1668" gradientUnits="userSpaceOnUse">
<stop stop-color="#30559F"/>
<stop offset="1" stop-color="#4378E0"/>
</linearGradient>
<linearGradient id="paint2_linear_101_6303" x1="11.5833" y1="4.5" x2="11.5833" y2="11.1667" gradientUnits="userSpaceOnUse">
<stop stop-color="#30559F"/>
<stop offset="1" stop-color="#4378E0"/>
</linearGradient>
<clipPath id="clip0_101_6303">
<rect width="193.5" height="32" fill="white" transform="translate(0.25 0.5)"/>
</clipPath>
</defs>
</svg>
