<svg width="40" height="40" viewBox="0 0 40 40" fill="none" xmlns="http://www.w3.org/2000/svg">
<path d="M14.0167 23.95C13.6696 25.4185 13.6594 26.9464 13.9867 28.4194C14.3141 29.8924 14.9705 31.2722 15.9068 32.4554C16.8432 33.6387 18.0351 34.5947 19.3934 35.2518C20.7517 35.909 22.2411 36.2502 23.75 36.25V28.25M14.0167 23.95C10.8335 21.6313 8.24404 18.5925 6.45973 15.0818C4.67542 11.5711 3.74689 7.68812 3.75 3.75001C7.68783 3.74716 11.5705 4.67581 15.0809 6.46012C18.5913 8.24442 21.6298 10.8338 23.9483 14.0167M14.0167 23.95C16.9135 26.0688 20.2328 27.5357 23.75 28.25L14.0167 23.95ZM23.9483 14.0167C25.4169 13.6693 26.945 13.6589 28.4182 13.9861C29.8914 14.3133 31.2714 14.9697 32.4549 15.906C33.6383 16.8424 34.5945 18.0345 35.2518 19.3929C35.909 20.7513 36.2503 22.2409 36.25 23.75H28.25M23.9483 14.0167C26.0669 16.913 27.5354 20.2334 28.25 23.75L23.9483 14.0167ZM23.75 28.25C23.9217 28.285 24.095 28.3183 24.2683 28.35C25.7804 27.151 27.1494 25.782 28.3483 24.27C28.3168 24.0963 28.2852 23.923 28.25 23.75M31.9817 27.7333C33.078 28.5486 33.9305 29.6483 34.4466 30.9133C34.9628 32.1783 35.123 33.5604 34.91 34.91C33.5603 35.1229 32.1781 34.9624 30.913 34.4459C29.648 33.9294 28.5484 33.0767 27.7333 31.98M12.5 15C12.5 15.663 12.7634 16.2989 13.2322 16.7678C13.7011 17.2366 14.337 17.5 15 17.5C15.663 17.5 16.2989 17.2366 16.7678 16.7678C17.2366 16.2989 17.5 15.663 17.5 15C17.5 14.337 17.2366 13.7011 16.7678 13.2322C16.2989 12.7634 15.663 12.5 15 12.5C14.337 12.5 13.7011 12.7634 13.2322 13.2322C12.7634 13.7011 12.5 14.337 12.5 15Z" fill="#B8E7D2"/>
<path d="M14.0167 23.95C13.6696 25.4185 13.6594 26.9464 13.9867 28.4194C14.3141 29.8924 14.9705 31.2722 15.9068 32.4554C16.8432 33.6387 18.0351 34.5947 19.3934 35.2518C20.7517 35.909 22.2411 36.2502 23.75 36.25V28.25M14.0167 23.95C10.8335 21.6313 8.24404 18.5925 6.45973 15.0818C4.67542 11.5711 3.74689 7.68812 3.75 3.75001C7.68783 3.74716 11.5705 4.67581 15.0809 6.46012C18.5913 8.24442 21.6298 10.8338 23.9483 14.0167M14.0167 23.95C16.9135 26.0688 20.2328 27.5357 23.75 28.25M23.75 28.25C23.9217 28.285 24.095 28.3183 24.2683 28.35C25.7804 27.151 27.1494 25.782 28.3483 24.27C28.3168 24.0963 28.2852 23.923 28.25 23.75M23.9483 14.0167C25.4169 13.6693 26.945 13.6589 28.4182 13.9861C29.8914 14.3133 31.2714 14.9697 32.4549 15.906C33.6383 16.8424 34.5945 18.0345 35.2518 19.3929C35.909 20.7513 36.2503 22.2409 36.25 23.75H28.25M23.9483 14.0167C26.0669 16.913 27.5354 20.2334 28.25 23.75M31.9817 27.7333C33.078 28.5486 33.9305 29.6483 34.4466 30.9133C34.9628 32.1783 35.123 33.5604 34.91 34.91C33.5603 35.1229 32.1781 34.9624 30.913 34.4459C29.648 33.9294 28.5484 33.0767 27.7333 31.98M12.5 15C12.5 15.663 12.7634 16.2989 13.2322 16.7678C13.7011 17.2366 14.337 17.5 15 17.5C15.663 17.5 16.2989 17.2366 16.7678 16.7678C17.2366 16.2989 17.5 15.663 17.5 15C17.5 14.337 17.2366 13.7011 16.7678 13.2322C16.2989 12.7634 15.663 12.5 15 12.5C14.337 12.5 13.7011 12.7634 13.2322 13.2322C12.7634 13.7011 12.5 14.337 12.5 15Z" stroke="#4378E0" stroke-width="1.5" stroke-linecap="round" stroke-linejoin="round"/>
</svg>
